solid ascii
  facet normal -7.071068e-001 0.000000e+000 -7.071068e-001
    outer loop
      vertex   -2.683500e+001 4.254430e+001 4.249638e+000
      vertex   -2.733500e+001 4.254430e+001 4.749638e+000
      vertex   -2.683500e+001 4.754430e+001 4.249638e+000
    endloop
  endfacet
  facet normal -7.001401e-001 0.000000e+000 -7.001401e-001
    outer loop
      vertex   -2.683500e+001 4.754430e+001 4.249638e+000
      vertex   -2.733500e+001 4.254430e+001 4.749638e+000
      vertex   -2.733500e+001 4.754430e+001 4.749638e+000
    endloop
  endfacet
  facet normal 0.000000e+000 0.000000e+000 -1.000000e+000
    outer loop
      vertex   -2.733500e+001 4.254430e+001 4.749638e+000
      vertex   -3.337500e+001 4.254430e+001 4.749638e+000
      vertex   -2.733500e+001 4.754430e+001 4.749638e+000
    endloop
  endfacet
  facet normal -0.000000e+000 0.000000e+000 -6.376721e-001
    outer loop
      vertex   -2.733500e+001 4.754430e+001 4.749638e+000
      vertex   -3.337500e+001 4.254430e+001 4.749638e+000
      vertex   -3.337500e+001 4.754430e+001 4.749638e+000
    endloop
  endfacet
  facet normal 0.000000e+000 -7.071072e-001 7.071064e-001
    outer loop
      vertex   -2.316500e+001 4.234000e+001 6.500000e+000
      vertex   -2.396500e+001 4.234000e+001 6.500000e+000
      vertex   -2.316500e+001 4.154000e+001 5.700000e+000
    endloop
  endfacet
  facet normal 0.000000e+000 -3.874025e-001 3.874020e-001
    outer loop
      vertex   -2.316500e+001 4.154000e+001 5.700000e+000
      vertex   -2.396500e+001 4.234000e+001 6.500000e+000
      vertex   -2.603500e+001 4.234000e+001 6.500000e+000
    endloop
  endfacet
  facet normal 0.000000e+000 -2.593239e-001 2.593236e-001
    outer loop
      vertex   -2.316500e+001 4.154000e+001 5.700000e+000
      vertex   -2.603500e+001 4.234000e+001 6.500000e+000
      vertex   -2.683500e+001 4.154000e+001 5.700000e+000
    endloop
  endfacet
  facet normal -2.433350e-007 -4.082482e-001 4.082480e-001
    outer loop
      vertex   -2.683500e+001 4.154000e+001 5.700000e+000
      vertex   -2.603500e+001 4.234000e+001 6.500000e+000
      vertex   -2.683500e+001 4.234000e+001 6.500000e+000
    endloop
  endfacet
  facet normal 0.000000e+000 -1.000000e+000 0.000000e+000
    outer loop
      vertex   -2.683500e+001 4.154000e+001 5.700000e+000
      vertex   -2.683500e+001 4.154000e+001 0.000000e+000
      vertex   -2.316500e+001 4.154000e+001 5.700000e+000
    endloop
  endfacet
  facet normal 0.000000e+000 -5.413536e-001 -0.000000e+000
    outer loop
      vertex   -2.316500e+001 4.154000e+001 5.700000e+000
      vertex   -2.683500e+001 4.154000e+001 0.000000e+000
      vertex   -2.316500e+001 4.154000e+001 0.000000e+000
    endloop
  endfacet
  facet normal -7.454585e-001 0.000000e+000 0.000000e+000
    outer loop
      vertex   -2.683500e+001 4.754430e+001 6.500000e+000
      vertex   -2.683500e+001 4.843867e+001 5.700294e+000
      vertex   -2.683500e+001 4.754430e+001 4.249638e+000
    endloop
  endfacet
  facet normal -6.629913e-001 0.000000e+000 0.000000e+000
    outer loop
      vertex   -2.683500e+001 4.754430e+001 4.249638e+000
      vertex   -2.683500e+001 4.843867e+001 5.700294e+000
      vertex   -2.683500e+001 4.828394e+001 -1.843144e-016
    endloop
  endfacet
  facet normal -9.851894e-001 -0.000000e+000 -0.000000e+000
    outer loop
      vertex   -2.683500e+001 4.754430e+001 4.249638e+000
      vertex   -2.683500e+001 4.828394e+001 -1.843144e-016
      vertex   -2.683500e+001 4.254430e+001 4.249638e+000
    endloop
  endfacet
  facet normal -9.189989e-001 0.000000e+000 -0.000000e+000
    outer loop
      vertex   -2.683500e+001 4.254430e+001 4.249638e+000
      vertex   -2.683500e+001 4.828394e+001 -1.843144e-016
      vertex   -2.683500e+001 4.154000e+001 0.000000e+000
    endloop
  endfacet
  facet normal -7.431088e-001 -0.000000e+000 0.000000e+000
    outer loop
      vertex   -2.683500e+001 4.254430e+001 4.249638e+000
      vertex   -2.683500e+001 4.154000e+001 0.000000e+000
      vertex   -2.683500e+001 4.154000e+001 5.700000e+000
    endloop
  endfacet
  facet normal -6.665519e-001 0.000000e+000 0.000000e+000
    outer loop
      vertex   -2.683500e+001 4.754430e+001 6.500000e+000
      vertex   -2.683500e+001 4.766038e+001 6.500000e+000
      vertex   -2.683500e+001 4.843867e+001 5.700294e+000
    endloop
  endfacet
  facet normal -7.071070e-001 0.000000e+000 -0.000000e+000
    outer loop
      vertex   -2.683500e+001 4.234000e+001 6.500000e+000
      vertex   -2.683500e+001 4.254430e+001 6.500000e+000
      vertex   -2.683500e+001 4.154000e+001 5.700000e+000
    endloop
  endfacet
  facet normal -9.977554e-001 0.000000e+000 0.000000e+000
    outer loop
      vertex   -2.683500e+001 4.154000e+001 5.700000e+000
      vertex   -2.683500e+001 4.254430e+001 6.500000e+000
      vertex   -2.683500e+001 4.254430e+001 4.249638e+000
    endloop
  endfacet
  facet normal -0.000000e+000 7.166373e-001 6.974461e-001
    outer loop
      vertex   -2.683500e+001 4.843867e+001 5.700294e+000
      vertex   -2.683500e+001 4.766038e+001 6.500000e+000
      vertex   -2.316500e+001 4.843867e+001 5.700294e+000
    endloop
  endfacet
  facet normal -8.669878e-008 6.856425e-001 6.672810e-001
    outer loop
      vertex   -2.316500e+001 4.843867e+001 5.700294e+000
      vertex   -2.683500e+001 4.766038e+001 6.500000e+000
      vertex   -2.316500e+001 4.766038e+001 6.500000e+000
    endloop
  endfacet
  facet normal 0.000000e+000 9.996318e-001 -2.713519e-002
    outer loop
      vertex   -2.683500e+001 4.843867e+001 5.700294e+000
      vertex   -2.316500e+001 4.843867e+001 5.700294e+000
      vertex   -2.683500e+001 4.828394e+001 -1.843144e-016
    endloop
  endfacet
  facet normal 2.480668e-018 8.405888e-001 -2.281794e-002
    outer loop
      vertex   -2.683500e+001 4.828394e+001 -1.843144e-016
      vertex   -2.316500e+001 4.843867e+001 5.700294e+000
      vertex   -2.316500e+001 4.828394e+001 2.146720e-016
    endloop
  endfacet
  facet normal 0.000000e+000 -7.071068e-001 0.000000e+000
    outer loop
      vertex   -2.683500e+001 4.254430e+001 4.249638e+000
      vertex   -2.683500e+001 4.254430e+001 6.500000e+000
      vertex   -2.733500e+001 4.254430e+001 4.749638e+000
    endloop
  endfacet
  facet normal 0.000000e+000 -9.998820e-001 0.000000e+000
    outer loop
      vertex   -2.733500e+001 4.254430e+001 4.749638e+000
      vertex   -2.683500e+001 4.254430e+001 6.500000e+000
      vertex   -3.312428e+001 4.254430e+001 6.500000e+000
    endloop
  endfacet
  facet normal 0.000000e+000 -1.113203e-001 0.000000e+000
    outer loop
      vertex   -2.733500e+001 4.254430e+001 4.749638e+000
      vertex   -3.312428e+001 4.254430e+001 6.500000e+000
      vertex   -3.412500e+001 4.254430e+001 5.999638e+000
    endloop
  endfacet
  facet normal 0.000000e+000 -9.486833e-001 0.000000e+000
    outer loop
      vertex   -3.412500e+001 4.254430e+001 4.999638e+000
      vertex   -3.337500e+001 4.254430e+001 4.749638e+000
      vertex   -3.412500e+001 4.254430e+001 5.999638e+000
    endloop
  endfacet
  facet normal 0.000000e+000 -7.501712e-001 0.000000e+000
    outer loop
      vertex   -3.412500e+001 4.254430e+001 5.999638e+000
      vertex   -3.337500e+001 4.254430e+001 4.749638e+000
      vertex   -2.733500e+001 4.254430e+001 4.749638e+000
    endloop
  endfacet
  facet normal -4.472136e-001 0.000000e+000 8.944272e-001
    outer loop
      vertex   -3.312428e+001 4.754430e+001 6.500000e+000
      vertex   -3.412500e+001 4.754430e+001 5.999638e+000
      vertex   -3.312428e+001 4.254430e+001 6.500000e+000
    endloop
  endfacet
  facet normal -4.364207e-001 0.000000e+000 8.728414e-001
    outer loop
      vertex   -3.312428e+001 4.254430e+001 6.500000e+000
      vertex   -3.412500e+001 4.754430e+001 5.999638e+000
      vertex   -3.412500e+001 4.254430e+001 5.999638e+000
    endloop
  endfacet
  facet normal -1.000000e+000 0.000000e+000 0.000000e+000
    outer loop
      vertex   -3.412500e+001 4.254430e+001 4.999638e+000
      vertex   -3.412500e+001 4.254430e+001 5.999638e+000
      vertex   -3.412500e+001 4.754430e+001 4.999638e+000
    endloop
  endfacet
  facet normal -9.805807e-001 0.000000e+000 0.000000e+000
    outer loop
      vertex   -3.412500e+001 4.754430e+001 4.999638e+000
      vertex   -3.412500e+001 4.254430e+001 5.999638e+000
      vertex   -3.412500e+001 4.754430e+001 5.999638e+000
    endloop
  endfacet
  facet normal -3.162278e-001 0.000000e+000 -9.486833e-001
    outer loop
      vertex   -3.337500e+001 4.254430e+001 4.749638e+000
      vertex   -3.412500e+001 4.254430e+001 4.999638e+000
      vertex   -3.337500e+001 4.754430e+001 4.749638e+000
    endloop
  endfacet
  facet normal -3.123475e-001 0.000000e+000 -9.370426e-001
    outer loop
      vertex   -3.337500e+001 4.754430e+001 4.749638e+000
      vertex   -3.412500e+001 4.254430e+001 4.999638e+000
      vertex   -3.412500e+001 4.754430e+001 4.999638e+000
    endloop
  endfacet
  facet normal -0.000000e+000 6.017604e-001 0.000000e+000
    outer loop
      vertex   -3.412500e+001 4.754430e+001 5.999638e+000
      vertex   -3.312428e+001 4.754430e+001 6.500000e+000
      vertex   -2.733500e+001 4.754430e+001 4.749638e+000
    endloop
  endfacet
  facet normal 0.000000e+000 9.998820e-001 -0.000000e+000
    outer loop
      vertex   -2.733500e+001 4.754430e+001 4.749638e+000
      vertex   -3.312428e+001 4.754430e+001 6.500000e+000
      vertex   -2.683500e+001 4.754430e+001 6.500000e+000
    endloop
  endfacet
  facet normal -0.000000e+000 8.741307e-001 0.000000e+000
    outer loop
      vertex   -2.733500e+001 4.754430e+001 4.749638e+000
      vertex   -2.683500e+001 4.754430e+001 6.500000e+000
      vertex   -2.683500e+001 4.754430e+001 4.249638e+000
    endloop
  endfacet
  facet normal 0.000000e+000 1.810518e-001 0.000000e+000
    outer loop
      vertex   -2.733500e+001 4.754430e+001 4.749638e+000
      vertex   -3.337500e+001 4.754430e+001 4.749638e+000
      vertex   -3.412500e+001 4.754430e+001 5.999638e+000
    endloop
  endfacet
  facet normal 0.000000e+000 5.144957e-001 0.000000e+000
    outer loop
      vertex   -3.412500e+001 4.754430e+001 5.999638e+000
      vertex   -3.337500e+001 4.754430e+001 4.749638e+000
      vertex   -3.412500e+001 4.754430e+001 4.999638e+000
    endloop
  endfacet
  facet normal 1.000000e+000 -0.000000e+000 0.000000e+000
    outer loop
      vertex   -2.603500e+001 4.234000e+001 6.500000e+000
      vertex   -2.603500e+001 4.234000e+001 0.000000e+000
      vertex   -2.603500e+001 4.766000e+001 6.500000e+000
    endloop
  endfacet
  facet normal 6.333674e-001 0.000000e+000 0.000000e+000
    outer loop
      vertex   -2.603500e+001 4.766000e+001 6.500000e+000
      vertex   -2.603500e+001 4.234000e+001 0.000000e+000
      vertex   -2.603500e+001 4.766000e+001 0.000000e+000
    endloop
  endfacet
  facet normal 0.000000e+000 1.000000e+000 -0.000000e+000
    outer loop
      vertex   -2.316500e+001 4.390000e+001 0.000000e+000
      vertex   -2.396500e+001 4.390000e+001 0.000000e+000
      vertex   -2.316500e+001 4.390000e+001 4.550000e+000
    endloop
  endfacet
  facet normal 0.000000e+000 9.848924e-001 0.000000e+000
    outer loop
      vertex   -2.316500e+001 4.390000e+001 4.550000e+000
      vertex   -2.396500e+001 4.390000e+001 0.000000e+000
      vertex   -2.396500e+001 4.390000e+001 4.550000e+000
    endloop
  endfacet
  facet normal 0.000000e+000 0.000000e+000 -1.000000e+000
    outer loop
      vertex   -2.316500e+001 4.390000e+001 4.550000e+000
      vertex   -2.396500e+001 4.390000e+001 4.550000e+000
      vertex   -2.316500e+001 4.610000e+001 4.550000e+000
    endloop
  endfacet
  facet normal -0.000000e+000 0.000000e+000 -9.397933e-001
    outer loop
      vertex   -2.316500e+001 4.610000e+001 4.550000e+000
      vertex   -2.396500e+001 4.390000e+001 4.550000e+000
      vertex   -2.396500e+001 4.610000e+001 4.550000e+000
    endloop
  endfacet
  facet normal -0.000000e+000 -1.000000e+000 -0.000000e+000
    outer loop
      vertex   -2.316500e+001 4.610000e+001 4.550000e+000
      vertex   -2.396500e+001 4.610000e+001 4.550000e+000
      vertex   -2.316500e+001 4.610000e+001 0.000000e+000
    endloop
  endfacet
  facet normal 0.000000e+000 -9.848924e-001 0.000000e+000
    outer loop
      vertex   -2.316500e+001 4.610000e+001 0.000000e+000
      vertex   -2.396500e+001 4.610000e+001 4.550000e+000
      vertex   -2.396500e+001 4.610000e+001 0.000000e+000
    endloop
  endfacet
  facet normal 0.000000e+000 -1.000000e+000 0.000000e+000
    outer loop
      vertex   -2.603500e+001 4.766000e+001 6.500000e+000
      vertex   -2.603500e+001 4.766000e+001 0.000000e+000
      vertex   -2.396500e+001 4.766000e+001 6.500000e+000
    endloop
  endfacet
  facet normal 0.000000e+000 -3.034456e-001 -0.000000e+000
    outer loop
      vertex   -2.396500e+001 4.766000e+001 6.500000e+000
      vertex   -2.603500e+001 4.766000e+001 0.000000e+000
      vertex   -2.396500e+001 4.766000e+001 0.000000e+000
    endloop
  endfacet
  facet normal 9.454018e-001 -0.000000e+000 0.000000e+000
    outer loop
      vertex   -2.316500e+001 4.154000e+001 5.700000e+000
      vertex   -2.316500e+001 4.390000e+001 4.550000e+000
      vertex   -2.316500e+001 4.234000e+001 6.500000e+000
    endloop
  endfacet
  facet normal 4.055905e-001 0.000000e+000 0.000000e+000
    outer loop
      vertex   -2.316500e+001 4.234000e+001 6.500000e+000
      vertex   -2.316500e+001 4.390000e+001 4.550000e+000
      vertex   -2.316500e+001 4.610000e+001 4.550000e+000
    endloop
  endfacet
  facet normal 4.603863e-001 -0.000000e+000 0.000000e+000
    outer loop
      vertex   -2.316500e+001 4.234000e+001 6.500000e+000
      vertex   -2.316500e+001 4.610000e+001 4.550000e+000
      vertex   -2.316500e+001 4.766038e+001 6.500000e+000
    endloop
  endfacet
  facet normal 9.923084e-001 0.000000e+000 0.000000e+000
    outer loop
      vertex   -2.316500e+001 4.766038e+001 6.500000e+000
      vertex   -2.316500e+001 4.610000e+001 4.550000e+000
      vertex   -2.316500e+001 4.843867e+001 5.700294e+000
    endloop
  endfacet
  facet normal 8.850238e-001 0.000000e+000 0.000000e+000
    outer loop
      vertex   -2.316500e+001 4.843867e+001 5.700294e+000
      vertex   -2.316500e+001 4.610000e+001 4.550000e+000
      vertex   -2.316500e+001 4.828394e+001 2.146720e-016
    endloop
  endfacet
  facet normal 9.015279e-001 0.000000e+000 0.000000e+000
    outer loop
      vertex   -2.316500e+001 4.828394e+001 2.146720e-016
      vertex   -2.316500e+001 4.610000e+001 4.550000e+000
      vertex   -2.316500e+001 4.610000e+001 0.000000e+000
    endloop
  endfacet
  facet normal 8.989514e-001 0.000000e+000 0.000000e+000
    outer loop
      vertex   -2.316500e+001 4.154000e+001 5.700000e+000
      vertex   -2.316500e+001 4.154000e+001 0.000000e+000
      vertex   -2.316500e+001 4.390000e+001 4.550000e+000
    endloop
  endfacet
  facet normal 4.604311e-001 0.000000e+000 0.000000e+000
    outer loop
      vertex   -2.316500e+001 4.390000e+001 4.550000e+000
      vertex   -2.316500e+001 4.154000e+001 0.000000e+000
      vertex   -2.316500e+001 4.390000e+001 0.000000e+000
    endloop
  endfacet
  facet normal 3.645549e-018 -3.645549e-018 -1.333881e-001
    outer loop
      vertex   -2.683500e+001 4.828394e+001 -1.843144e-016
      vertex   -2.603500e+001 4.234000e+001 0.000000e+000
      vertex   -2.683500e+001 4.154000e+001 0.000000e+000
    endloop
  endfacet
  facet normal 0.000000e+000 0.000000e+000 -4.912752e-001
    outer loop
      vertex   -2.683500e+001 4.154000e+001 0.000000e+000
      vertex   -2.603500e+001 4.234000e+001 0.000000e+000
      vertex   -2.396500e+001 4.234000e+001 0.000000e+000
    endloop
  endfacet
  facet normal 0.000000e+000 0.000000e+000 -2.685091e-001
    outer loop
      vertex   -2.683500e+001 4.154000e+001 0.000000e+000
      vertex   -2.396500e+001 4.234000e+001 0.000000e+000
      vertex   -2.316500e+001 4.154000e+001 0.000000e+000
    endloop
  endfacet
  facet normal 0.000000e+000 0.000000e+000 -7.071068e-001
    outer loop
      vertex   -2.316500e+001 4.154000e+001 0.000000e+000
      vertex   -2.396500e+001 4.234000e+001 0.000000e+000
      vertex   -2.316500e+001 4.390000e+001 0.000000e+000
    endloop
  endfacet
  facet normal -0.000000e+000 0.000000e+000 -8.898178e-001
    outer loop
      vertex   -2.316500e+001 4.390000e+001 0.000000e+000
      vertex   -2.396500e+001 4.234000e+001 0.000000e+000
      vertex   -2.396500e+001 4.390000e+001 0.000000e+000
    endloop
  endfacet
  facet normal 3.073171e-017 0.000000e+000 -1.333881e-001
    outer loop
      vertex   -2.603500e+001 4.234000e+001 0.000000e+000
      vertex   -2.683500e+001 4.828394e+001 -1.843144e-016
      vertex   -2.603500e+001 4.766000e+001 0.000000e+000
    endloop
  endfacet
  facet normal 8.354464e-017 -1.198909e-016 -7.684690e-001
    outer loop
      vertex   -2.603500e+001 4.766000e+001 0.000000e+000
      vertex   -2.683500e+001 4.828394e+001 -1.843144e-016
      vertex   -2.316500e+001 4.828394e+001 2.146720e-016
    endloop
  endfacet
  facet normal 0.000000e+000 7.309135e-017 -2.124371e-001
    outer loop
      vertex   -2.603500e+001 4.766000e+001 0.000000e+000
      vertex   -2.316500e+001 4.828394e+001 2.146720e-016
      vertex   -2.396500e+001 4.766000e+001 0.000000e+000
    endloop
  endfacet
  facet normal 1.882811e-016 9.655423e-017 -9.822815e-001
    outer loop
      vertex   -2.396500e+001 4.766000e+001 0.000000e+000
      vertex   -2.316500e+001 4.828394e+001 2.146720e-016
      vertex   -2.316500e+001 4.610000e+001 0.000000e+000
    endloop
  endfacet
  facet normal 0.000000e+000 0.000000e+000 -4.563160e-001
    outer loop
      vertex   -2.396500e+001 4.766000e+001 0.000000e+000
      vertex   -2.316500e+001 4.610000e+001 0.000000e+000
      vertex   -2.396500e+001 4.610000e+001 0.000000e+000
    endloop
  endfacet
  facet normal -1.000000e+000 0.000000e+000 0.000000e+000
    outer loop
      vertex   -2.396500e+001 4.610000e+001 0.000000e+000
      vertex   -2.396500e+001 4.610000e+001 4.550000e+000
      vertex   -2.396500e+001 4.766000e+001 0.000000e+000
    endloop
  endfacet
  facet normal -3.243246e-001 0.000000e+000 0.000000e+000
    outer loop
      vertex   -2.396500e+001 4.766000e+001 0.000000e+000
      vertex   -2.396500e+001 4.610000e+001 4.550000e+000
      vertex   -2.396500e+001 4.766000e+001 6.500000e+000
    endloop
  endfacet
  facet normal -7.808686e-001 -0.000000e+000 0.000000e+000
    outer loop
      vertex   -2.396500e+001 4.766000e+001 6.500000e+000
      vertex   -2.396500e+001 4.610000e+001 4.550000e+000
      vertex   -2.396500e+001 4.234000e+001 6.500000e+000
    endloop
  endfacet
  facet normal -4.055905e-001 0.000000e+000 0.000000e+000
    outer loop
      vertex   -2.396500e+001 4.234000e+001 6.500000e+000
      vertex   -2.396500e+001 4.610000e+001 4.550000e+000
      vertex   -2.396500e+001 4.390000e+001 4.550000e+000
    endloop
  endfacet
  facet normal -6.246953e-001 0.000000e+000 0.000000e+000
    outer loop
      vertex   -2.396500e+001 4.234000e+001 6.500000e+000
      vertex   -2.396500e+001 4.390000e+001 4.550000e+000
      vertex   -2.396500e+001 4.234000e+001 0.000000e+000
    endloop
  endfacet
  facet normal -9.459459e-001 0.000000e+000 0.000000e+000
    outer loop
      vertex   -2.396500e+001 4.234000e+001 0.000000e+000
      vertex   -2.396500e+001 4.390000e+001 4.550000e+000
      vertex   -2.396500e+001 4.390000e+001 0.000000e+000
    endloop
  endfacet
  facet normal 0.000000e+000 1.000000e+000 0.000000e+000
    outer loop
      vertex   -2.603500e+001 4.234000e+001 0.000000e+000
      vertex   -2.603500e+001 4.234000e+001 6.500000e+000
      vertex   -2.396500e+001 4.234000e+001 0.000000e+000
    endloop
  endfacet
  facet normal 0.000000e+000 3.034456e-001 -0.000000e+000
    outer loop
      vertex   -2.396500e+001 4.234000e+001 0.000000e+000
      vertex   -2.603500e+001 4.234000e+001 6.500000e+000
      vertex   -2.396500e+001 4.234000e+001 6.500000e+000
    endloop
  endfacet
  facet normal 0.000000e+000 0.000000e+000 1.000000e+000
    outer loop
      vertex   -2.396500e+001 4.234000e+001 6.500000e+000
      vertex   -2.316500e+001 4.234000e+001 6.500000e+000
      vertex   -2.396500e+001 4.766000e+001 6.500000e+000
    endloop
  endfacet
  facet normal -0.000000e+000 0.000000e+000 9.889526e-001
    outer loop
      vertex   -2.396500e+001 4.766000e+001 6.500000e+000
      vertex   -2.316500e+001 4.234000e+001 6.500000e+000
      vertex   -2.316500e+001 4.766038e+001 6.500000e+000
    endloop
  endfacet
  facet normal -7.922437e-011 1.661454e-007 6.097539e-004
    outer loop
      vertex   -2.396500e+001 4.766000e+001 6.500000e+000
      vertex   -2.316500e+001 4.766038e+001 6.500000e+000
      vertex   -2.683500e+001 4.766038e+001 6.500000e+000
    endloop
  endfacet
  facet normal 0.000000e+000 1.661454e-007 1.329163e-004
    outer loop
      vertex   -2.396500e+001 4.766000e+001 6.500000e+000
      vertex   -2.683500e+001 4.766038e+001 6.500000e+000
      vertex   -2.603500e+001 4.766000e+001 6.500000e+000
    endloop
  endfacet
  facet normal -8.559962e-008 0.000000e+000 1.436122e-001
    outer loop
      vertex   -2.603500e+001 4.766000e+001 6.500000e+000
      vertex   -2.683500e+001 4.766038e+001 6.500000e+000
      vertex   -2.683500e+001 4.754430e+001 6.500000e+000
    endloop
  endfacet
  facet normal -5.696438e-007 0.000000e+000 9.557027e-001
    outer loop
      vertex   -2.603500e+001 4.766000e+001 6.500000e+000
      vertex   -2.683500e+001 4.754430e+001 6.500000e+000
      vertex   -2.683500e+001 4.254430e+001 6.500000e+000
    endloop
  endfacet
  facet normal 0.000000e+000 -0.000000e+000 7.827728e-001
    outer loop
      vertex   -2.683500e+001 4.254430e+001 6.500000e+000
      vertex   -2.683500e+001 4.754430e+001 6.500000e+000
      vertex   -3.312428e+001 4.754430e+001 6.500000e+000
    endloop
  endfacet
  facet normal 0.000000e+000 0.000000e+000 6.223075e-001
    outer loop
      vertex   -2.683500e+001 4.254430e+001 6.500000e+000
      vertex   -3.312428e+001 4.754430e+001 6.500000e+000
      vertex   -3.312428e+001 4.254430e+001 6.500000e+000
    endloop
  endfacet
  facet normal -5.960470e-007 0.000000e+000 1.000000e+000
    outer loop
      vertex   -2.683500e+001 4.234000e+001 6.500000e+000
      vertex   -2.603500e+001 4.234000e+001 6.500000e+000
      vertex   -2.683500e+001 4.254430e+001 6.500000e+000
    endloop
  endfacet
  facet normal -5.933649e-007 0.000000e+000 9.955002e-001
    outer loop
      vertex   -2.683500e+001 4.254430e+001 6.500000e+000
      vertex   -2.603500e+001 4.234000e+001 6.500000e+000
      vertex   -2.603500e+001 4.766000e+001 6.500000e+000
    endloop
  endfacet
endsolid
